<svg width="60" height="60" viewBox="0 0 60 60" fill="none" xmlns="http://www.w3.org/2000/svg">
<rect width="60" height="60" rx="4" fill="#3245EE"/>
<path fill-rule="evenodd" clip-rule="evenodd" d="M19.75 21C18.2312 21 17 22.2312 17 23.75V35.75C17 37.2688 18.2312 38.5 19.75 38.5H39.4342C40.953 38.5 42.1842 37.2688 42.1842 35.75V23.75C42.1842 22.2312 40.953 21 39.4342 21H19.75ZM18.5 23.75C18.5 23.0596 19.0596 22.5 19.75 22.5H39.4342C40.1246 22.5 40.6842 23.0596 40.6842 23.75V25.75H18.5V23.75ZM18.5 27.75V35.75C18.5 36.4404 19.0596 37 19.75 37H39.4342C40.1246 37 40.6842 36.4404 40.6842 35.75V27.75H18.5ZM20.3816 30.5C20.3816 30.0858 20.6761 29.75 21.0395 29.75H26.7412C27.1046 29.75 27.3991 30.0858 27.3991 30.5C27.3991 30.9142 27.1046 31.25 26.7412 31.25H21.0395C20.6761 31.25 20.3816 30.9142 20.3816 30.5ZM21.0395 32.75C20.6761 32.75 20.3816 33.0858 20.3816 33.5C20.3816 33.9142 20.6761 34.25 21.0395 34.25H24.1096C24.473 34.25 24.7675 33.9142 24.7675 33.5C24.7675 33.0858 24.473 32.75 24.1096 32.75H21.0395Z" fill="white"/>
</svg>
