<svg width="60" height="60" viewBox="0 0 60 60" fill="none" xmlns="http://www.w3.org/2000/svg">
<rect width="60" height="60" rx="4" fill="#343437"/>
<path fill-rule="evenodd" clip-rule="evenodd" d="M18.4375 37.6253C18.4375 34.7928 20.7337 32.4966 23.5662 32.4966C26.3987 32.4966 28.6949 34.7928 28.6949 37.6253C28.6949 40.4577 26.3987 42.7539 23.5662 42.7539C20.7337 42.7539 18.4375 40.4577 18.4375 37.6253ZM23.5662 34.3716C21.7692 34.3716 20.3125 35.8283 20.3125 37.6253C20.3125 39.4222 21.7692 40.8789 23.5662 40.8789C25.3631 40.8789 26.8199 39.4222 26.8199 37.6253C26.8199 35.8283 25.3631 34.3716 23.5662 34.3716Z" fill="white"/>
<path fill-rule="evenodd" clip-rule="evenodd" d="M30.5596 26.6004C30.1935 26.2343 30.1935 25.6407 30.5596 25.2746L35.7746 20.0597C36.1407 19.6936 36.7343 19.6936 37.1004 20.0597L42.3153 25.2746C42.6814 25.6407 42.6814 26.2343 42.3153 26.6004L37.1004 31.8153C36.7343 32.1814 36.1407 32.1814 35.7746 31.8153L30.5596 26.6004ZM32.5484 25.9375L36.4375 29.8266L40.3266 25.9375L36.4375 22.0484L32.5484 25.9375Z" fill="white"/>
<path fill-rule="evenodd" clip-rule="evenodd" d="M19.6875 22.625C19.6875 22.1072 20.1072 21.6875 20.625 21.6875H28.125C28.6428 21.6875 29.0625 22.1072 29.0625 22.625C29.0625 23.1428 28.6428 23.5625 28.125 23.5625H21.5625V30.125C21.5625 30.6428 21.1428 31.0625 20.625 31.0625C20.1072 31.0625 19.6875 30.6428 19.6875 30.125V22.625Z" fill="white"/>
<path fill-rule="evenodd" clip-rule="evenodd" d="M40.3125 41.375C40.3125 41.8928 39.8928 42.3125 39.375 42.3125H31.875C31.3572 42.3125 30.9375 41.8928 30.9375 41.375C30.9375 40.8572 31.3572 40.4375 31.875 40.4375H38.4375V33.875C38.4375 33.3572 38.8572 32.9375 39.375 32.9375C39.8928 32.9375 40.3125 33.3572 40.3125 33.875V41.375Z" fill="white"/>
</svg>
