<?xml version="1.0" encoding="UTF-8" standalone="no" ?>
<!DOCTYPE svg PUBLIC "-//W3C//DTD SVG 1.1//EN" "http://www.w3.org/Graphics/SVG/1.1/DTD/svg11.dtd">
<svg xmlns="http://www.w3.org/2000/svg" xmlns:xlink="http://www.w3.org/1999/xlink" version="1.1" width="1080" height="1080" viewBox="0 0 1080 1080" xml:space="preserve">
<desc>Created with Fabric.js 5.2.4</desc>
<defs>
</defs>
<g transform="matrix(1 0 0 1 540 540)" id="0f1fa1f0-19d8-48aa-a983-75ac2a349383"  >
<rect style="stroke: none; stroke-width: 1; stroke-dasharray: none; stroke-linecap: butt; stroke-dashoffset: 0; stroke-linejoin: miter; stroke-miterlimit: 4; fill: rgb(255,255,255); fill-rule: nonzero; opacity: 1; visibility: hidden;" vector-effect="non-scaling-stroke"  x="-540" y="-540" rx="0" ry="0" width="1080" height="1080" />
</g>
<g transform="matrix(1 0 0 1 540 540)" id="c0f9dd8c-8421-4892-ade1-de0b55b42bc4"  >
</g>
<g transform="matrix(1 0 0 1 540 540)"  >
<g style="" vector-effect="non-scaling-stroke"   >
		<g transform="matrix(1 0 0 1 -42.57 -5.64)" clip-path="url(#CLIPPATH_3)"  >
<clipPath id="CLIPPATH_3" >
	<rect transform="matrix(1 0 0 1 42.27 5.89)" id="clip0_278_36536" x="-70.5" y="-22.35365" rx="0" ry="0" width="141" height="44.7073" />
</clipPath>
<path style="stroke: none; stroke-width: 1; stroke-dasharray: none; stroke-linecap: butt; stroke-dashoffset: 0; stroke-linejoin: miter; stroke-miterlimit: 4; fill: rgb(245,240,240); fill-rule: nonzero; opacity: 1;" vector-effect="non-scaling-stroke"  transform=" translate(-28.23, -16.46)" d="M 34.8371 6.11914 L 34.8371 9.13171 L 25.1332 9.13171 L 25.1332 14.9831 L 34.2578 14.9831 L 34.2578 18.0246 L 25.1332 18.0246 L 25.1332 26.8017 L 21.6282 26.8017 L 21.6282 6.11914 L 34.8371 6.11914 Z" stroke-linecap="round" />
</g>
		<g transform="matrix(1 0 0 1 -29.56 -2.94)" clip-path="url(#CLIPPATH_4)"  >
<clipPath id="CLIPPATH_4" >
	<rect transform="matrix(1 0 0 1 29.26 3.2)" id="clip0_278_36536" x="-70.5" y="-22.35365" rx="0" ry="0" width="141" height="44.7073" />
</clipPath>
<path style="stroke: none; stroke-width: 1; stroke-dasharray: none; stroke-linecap: butt; stroke-dashoffset: 0; stroke-linejoin: miter; stroke-miterlimit: 4; fill: rgb(245,240,240); fill-rule: nonzero; opacity: 1;" vector-effect="non-scaling-stroke"  transform=" translate(-41.24, -19.15)" d="M 39.9842 11.7385 L 39.9842 13.9689 C 40.5057 13.1772 41.1333 12.5689 41.8671 12.1441 C 42.601 11.7193 43.3831 11.5068 44.2134 11.5068 C 44.5417 11.5068 44.8122 11.5165 45.0246 11.5357 C 45.2562 11.5551 45.4784 11.584 45.6908 11.6226 L 45.3143 14.6352 C 45.1018 14.5773 44.87 14.5387 44.619 14.5194 C 44.3679 14.5 44.1073 14.4904 43.8368 14.4904 C 43.219 14.4904 42.6782 14.5966 42.2148 14.809 C 41.7513 15.0021 41.3554 15.2628 41.027 15.5911 C 40.7181 15.9194 40.4767 16.296 40.3029 16.7209 C 40.1484 17.1264 40.0712 17.5416 40.0712 17.9665 L 40.0712 26.8014 L 36.7979 26.8014 L 36.7979 11.7385 L 39.9842 11.7385 Z" stroke-linecap="round" />
</g>
		<g transform="matrix(1 0 0 1 -17.42 -2.83)" clip-path="url(#CLIPPATH_5)"  >
<clipPath id="CLIPPATH_5" >
	<rect transform="matrix(1 0 0 1 17.11 3.08)" id="clip0_278_36536" x="-70.5" y="-22.35365" rx="0" ry="0" width="141" height="44.7073" />
</clipPath>
<path style="stroke: none; stroke-width: 1; stroke-dasharray: none; stroke-linecap: butt; stroke-dashoffset: 0; stroke-linejoin: miter; stroke-miterlimit: 4; fill: rgb(245,240,240); fill-rule: nonzero; opacity: 1;" vector-effect="non-scaling-stroke"  transform=" translate(-53.39, -19.27)" d="M 60.2377 22.3408 C 59.9674 23.9051 59.3011 25.1217 58.2391 25.9906 C 57.1769 26.8404 55.6513 27.2652 53.6622 27.2652 C 51.2676 27.2652 49.4427 26.5796 48.1875 25.2086 C 46.9515 23.8182 46.3335 21.8677 46.3335 19.3572 C 46.3335 18.0633 46.5073 16.9144 46.855 15.9102 C 47.2219 14.906 47.724 14.0659 48.3613 13.39 C 49.0178 12.6948 49.7903 12.1733 50.6786 11.8257 C 51.5863 11.4589 52.5807 11.2754 53.6622 11.2754 C 54.8209 11.2754 55.8251 11.4589 56.6748 11.8257 C 57.5245 12.1733 58.2293 12.6754 58.7894 13.332 C 59.3494 13.9693 59.7646 14.7418 60.0349 15.6494 C 60.3053 16.5378 60.4405 17.5322 60.4405 18.6331 L 60.4405 20.0814 L 49.6358 20.0814 C 49.6744 21.4525 50.022 22.563 50.6786 23.4126 C 51.3352 24.2623 52.3297 24.6871 53.6622 24.6871 C 54.705 24.6871 55.4871 24.4843 56.0085 24.0789 C 56.53 23.6733 56.8775 23.0939 57.0513 22.3408 L 60.2377 22.3408 Z M 57.2251 17.793 C 57.2251 16.557 56.9354 15.5819 56.3562 14.8673 C 55.7768 14.1528 54.8499 13.7955 53.5753 13.7955 C 52.3587 13.7955 51.4317 14.1625 50.7945 14.8962 C 50.1572 15.6109 49.7903 16.5764 49.6938 17.793 L 57.2251 17.793 Z" stroke-linecap="round" />
</g>
		<g transform="matrix(1 0 0 1 -1.2 -2.83)" clip-path="url(#CLIPPATH_6)"  >
<clipPath id="CLIPPATH_6" >
	<rect transform="matrix(1 0 0 1 0.89 3.08)" id="clip0_278_36536" x="-70.5" y="-22.35365" rx="0" ry="0" width="141" height="44.7073" />
</clipPath>
<path style="stroke: none; stroke-width: 1; stroke-dasharray: none; stroke-linecap: butt; stroke-dashoffset: 0; stroke-linejoin: miter; stroke-miterlimit: 4; fill: rgb(245,240,240); fill-rule: nonzero; opacity: 1;" vector-effect="non-scaling-stroke"  transform=" translate(-69.61, -19.27)" d="M 76.4616 22.3408 C 76.1913 23.9051 75.525 25.1217 74.4629 25.9906 C 73.4007 26.8404 71.8752 27.2652 69.886 27.2652 C 67.4915 27.2652 65.6666 26.5796 64.4113 25.2086 C 63.1754 23.8182 62.5574 21.8677 62.5574 19.3572 C 62.5574 18.0633 62.7313 16.9144 63.0788 15.9102 C 63.4458 14.906 63.9479 14.0659 64.5851 13.39 C 65.2418 12.6948 66.0142 12.1733 66.9025 11.8257 C 67.8101 11.4589 68.8047 11.2754 69.886 11.2754 C 71.0448 11.2754 72.049 11.4589 72.8986 11.8257 C 73.7484 12.1733 74.4532 12.6754 75.0133 13.332 C 75.5733 13.9693 75.9885 14.7418 76.2589 15.6494 C 76.5292 16.5378 76.6644 17.5322 76.6644 18.6331 L 76.6644 20.0814 L 65.8596 20.0814 C 65.8983 21.4525 66.2458 22.563 66.9025 23.4126 C 67.5591 24.2623 68.5537 24.6871 69.886 24.6871 C 70.9289 24.6871 71.711 24.4843 72.2324 24.0789 C 72.7538 23.6733 73.1014 23.0939 73.2752 22.3408 L 76.4616 22.3408 Z M 73.449 17.793 C 73.449 16.557 73.1594 15.5819 72.5801 14.8673 C 72.0007 14.1528 71.0738 13.7955 69.7992 13.7955 C 68.5825 13.7955 67.6556 14.1625 67.0184 14.8962 C 66.3811 15.6109 66.0142 16.5764 65.9176 17.793 L 73.449 17.793 Z" stroke-linecap="round" />
</g>
		<g transform="matrix(1 0 0 1 15.1 -5.64)" clip-path="url(#CLIPPATH_7)"  >
<clipPath id="CLIPPATH_7" >
	<rect transform="matrix(1 0 0 1 -15.41 5.89)" id="clip0_278_36536" x="-70.5" y="-22.35365" rx="0" ry="0" width="141" height="44.7073" />
</clipPath>
<path style="stroke: none; stroke-width: 1; stroke-dasharray: none; stroke-linecap: butt; stroke-dashoffset: 0; stroke-linejoin: miter; stroke-miterlimit: 4; fill: rgb(245,240,240); fill-rule: nonzero; opacity: 1;" vector-effect="non-scaling-stroke"  transform=" translate(-85.91, -16.46)" d="M 82.576 6.11914 L 82.576 13.8244 C 83.2132 12.9554 83.9471 12.3181 84.7775 11.9125 C 85.6272 11.4877 86.5251 11.2753 87.4714 11.2753 C 90.8316 11.2753 92.5117 13.1291 92.5117 16.837 L 92.5117 26.8017 L 89.2094 26.8017 L 89.2094 17.3583 C 89.2094 16.1417 88.9874 15.2921 88.5433 14.8092 C 88.0991 14.3071 87.4424 14.0561 86.5735 14.0561 C 85.9748 14.0561 85.4244 14.1623 84.9223 14.3748 C 84.4396 14.5872 84.0244 14.8672 83.6767 15.2148 C 83.3291 15.5624 83.0588 15.9679 82.8657 16.4314 C 82.6725 16.8756 82.576 17.3391 82.576 17.8218 L 82.576 26.8017 L 79.3027 26.8017 L 79.3027 6.11914 L 82.576 6.11914 Z" stroke-linecap="round" />
</g>
		<g transform="matrix(1 0 0 1 30.41 -2.87)" clip-path="url(#CLIPPATH_8)"  >
<clipPath id="CLIPPATH_8" >
	<rect transform="matrix(1 0 0 1 -30.72 3.13)" id="clip0_278_36536" x="-70.5" y="-22.35365" rx="0" ry="0" width="141" height="44.7073" />
</clipPath>
<path style="stroke: none; stroke-width: 1; stroke-dasharray: none; stroke-linecap: butt; stroke-dashoffset: 0; stroke-linejoin: miter; stroke-miterlimit: 4; fill: rgb(245,240,240); fill-rule: nonzero; opacity: 1;" vector-effect="non-scaling-stroke"  transform=" translate(-101.22, -19.23)" d="M 102.507 19.7628 C 101.522 19.8207 100.721 19.9269 100.103 20.0814 C 99.504 20.2359 99.0405 20.4387 98.7122 20.6897 C 98.3839 20.9214 98.1618 21.2014 98.0459 21.5298 C 97.9494 21.8387 97.9011 22.1766 97.9011 22.5436 C 97.9011 23.2002 98.1039 23.7119 98.5094 24.0789 C 98.9342 24.4458 99.5522 24.6292 100.363 24.6292 C 101.812 24.6292 102.883 24.2623 103.579 23.5285 C 104.274 22.7946 104.621 21.8001 104.621 20.5448 L 104.621 19.6759 L 102.507 19.7628 Z M 104.679 24.832 C 104.119 25.5079 103.434 26.0679 102.623 26.5121 C 101.812 26.9562 100.827 27.1784 99.6681 27.1784 C 98.9536 27.1784 98.2873 27.0817 97.6694 26.8887 C 97.0514 26.7149 96.5107 26.4445 96.0473 26.0776 C 95.6031 25.7107 95.2458 25.2472 94.9754 24.6871 C 94.7244 24.1078 94.5989 23.4319 94.5989 22.6595 C 94.5989 21.6167 94.8306 20.7766 95.2941 20.1394 C 95.7576 19.4827 96.3562 18.971 97.09 18.6041 C 97.8431 18.2371 98.6832 17.9861 99.6102 17.8509 C 100.537 17.6964 101.464 17.5999 102.391 17.5612 L 104.621 17.4453 L 104.621 16.8081 C 104.621 15.6687 104.342 14.8866 103.781 14.4618 C 103.241 14.0177 102.526 13.7955 101.638 13.7955 C 100.614 13.7955 99.8515 13.9693 99.3494 14.317 C 98.8667 14.6645 98.548 15.1666 98.3936 15.8233 L 95.381 15.5046 C 95.6513 14.0369 96.3176 12.9651 97.3797 12.2892 C 98.4419 11.6133 99.8999 11.2754 101.754 11.2754 C 102.951 11.2754 103.936 11.4299 104.708 11.7389 C 105.5 12.0478 106.128 12.4727 106.591 13.0135 C 107.055 13.5541 107.373 14.2011 107.547 14.9542 C 107.74 15.688 107.837 16.4992 107.837 17.3875 L 107.837 26.8018 L 104.679 26.8018 L 104.679 24.832 Z" stroke-linecap="round" />
</g>
		<g transform="matrix(1 0 0 1 46.67 -3.06)" clip-path="url(#CLIPPATH_9)"  >
<clipPath id="CLIPPATH_9" >
	<rect transform="matrix(1 0 0 1 -46.98 3.32)" id="clip0_278_36536" x="-70.5" y="-22.35365" rx="0" ry="0" width="141" height="44.7073" />
</clipPath>
<path style="stroke: none; stroke-width: 1; stroke-dasharray: none; stroke-linecap: butt; stroke-dashoffset: 0; stroke-linejoin: miter; stroke-miterlimit: 4; fill: rgb(245,240,240); fill-rule: nonzero; opacity: 1;" vector-effect="non-scaling-stroke"  transform=" translate(-117.48, -19.04)" d="M 114.06 11.7389 L 114.06 13.9404 C 114.736 13.0135 115.489 12.3375 116.319 11.9126 C 117.169 11.4878 118.077 11.2754 119.042 11.2754 C 122.402 11.2754 124.082 13.1293 124.082 16.8371 L 124.082 26.8018 L 120.78 26.8018 L 120.78 17.3585 C 120.78 16.1418 120.558 15.2922 120.114 14.8093 C 119.67 14.3072 119.013 14.0562 118.144 14.0562 C 117.565 14.0562 117.024 14.1625 116.522 14.3749 C 116.04 14.568 115.623 14.8383 115.276 15.1859 C 114.929 15.5336 114.649 15.9391 114.436 16.4025 C 114.243 16.8467 114.147 17.3198 114.147 17.8219 L 114.147 26.8018 L 110.873 26.8018 L 110.873 11.7389 L 114.06 11.7389 Z" stroke-linecap="round" />
</g>
		<g transform="matrix(1 0 0 1 63 -5.41)" clip-path="url(#CLIPPATH_10)"  >
<clipPath id="CLIPPATH_10" >
	<rect transform="matrix(1 0 0 1 -63.3 5.66)" id="clip0_278_36536" x="-70.5" y="-22.35365" rx="0" ry="0" width="141" height="44.7073" />
</clipPath>
<path style="stroke: none; stroke-width: 1; stroke-dasharray: none; stroke-linecap: butt; stroke-dashoffset: 0; stroke-linejoin: miter; stroke-miterlimit: 4; fill: rgb(245,240,240); fill-rule: nonzero; opacity: 1;" vector-effect="non-scaling-stroke"  transform=" translate(-133.8, -16.69)" d="M 137.756 18.9515 C 137.756 18.0053 137.65 17.2136 137.438 16.5763 C 137.245 15.9197 136.965 15.408 136.598 15.041 C 136.25 14.6548 135.835 14.3844 135.352 14.23 C 134.889 14.0561 134.396 13.9692 133.874 13.9692 C 132.658 13.9692 131.712 14.4038 131.036 15.2727 C 130.379 16.1417 130.051 17.4646 130.051 19.2412 C 130.051 20.2068 130.138 21.0275 130.312 21.7034 C 130.505 22.3793 130.765 22.9297 131.094 23.3545 C 131.442 23.7795 131.837 24.0884 132.282 24.2816 C 132.726 24.4746 133.208 24.5712 133.73 24.5712 C 134.928 24.5712 135.893 24.1849 136.627 23.4125 C 137.38 22.6207 137.756 21.3945 137.756 19.7337 L 137.756 18.9515 Z M 137.786 24.716 C 137.168 25.5657 136.463 26.2029 135.671 26.6279 C 134.898 27.0527 133.99 27.2651 132.948 27.2651 C 131.866 27.2651 130.929 27.072 130.138 26.6858 C 129.346 26.2996 128.689 25.7588 128.168 25.0636 C 127.647 24.3491 127.251 23.509 126.98 22.5435 C 126.729 21.5587 126.604 20.4772 126.604 19.2992 C 126.604 18.1984 126.74 17.1749 127.01 16.2286 C 127.279 15.2631 127.676 14.4326 128.198 13.7375 C 128.719 13.023 129.355 12.4533 130.109 12.0284 C 130.881 11.6036 131.77 11.3718 132.774 11.3332 C 132.968 11.3139 133.16 11.3139 133.354 11.3332 C 133.546 11.3332 133.749 11.3429 133.961 11.3622 C 134.638 11.4394 135.284 11.6326 135.902 11.9415 C 136.54 12.2312 137.148 12.7237 137.727 13.4188 L 137.727 6.11914 L 141.001 6.11914 L 141.001 26.8017 L 137.786 26.8017 L 137.786 24.716 Z" stroke-linecap="round" />
</g>
		<g transform="matrix(1 0 0 1 -43.49 16.78)" clip-path="url(#CLIPPATH_11)"  >
<clipPath id="CLIPPATH_11" >
	<rect transform="matrix(1 0 0 1 43.18 -16.52)" id="clip0_278_36536" x="-70.5" y="-22.35365" rx="0" ry="0" width="141" height="44.7073" />
</clipPath>
<path style="stroke: rgb(29,29,31); stroke-width: 0.118038; stroke-dasharray: none; stroke-linecap: butt; stroke-dashoffset: 0; stroke-linejoin: miter; stroke-miterlimit: 4; fill: rgb(245,240,240); fill-rule: nonzero; opacity: 1;" vector-effect="non-scaling-stroke"  transform=" translate(-27.32, -38.88)" d="M 26.8746 38.8564 C 26.8746 39.3231 26.8163 39.7443 26.7005 40.1205 C 26.5847 40.4896 26.4188 40.8024 26.2039 41.0605 C 25.989 41.3183 25.7277 41.5188 25.4195 41.6623 C 25.1196 41.7979 24.7788 41.8665 24.3959 41.8665 C 24.0734 41.8665 23.7578 41.8021 23.4487 41.6729 C 23.1514 41.5382 22.8796 41.3103 22.6342 40.9855 L 22.5126 40.8246 L 22.5126 41.0263 L 22.5126 41.6894 L 21.6958 41.6894 L 21.6958 33.9199 L 22.5237 33.9199 L 22.5237 36.8304 L 22.5237 37.0307 L 22.6452 36.8714 C 22.8762 36.5681 23.1423 36.3348 23.4431 36.1701 C 23.7413 36.0067 24.0951 35.9237 24.5066 35.9237 C 24.9044 35.9237 25.2481 35.9961 25.5398 36.1383 C 25.8403 36.2814 26.0867 36.4814 26.2792 36.7381 L 26.2799 36.739 C 26.4803 36.9966 26.6278 37.3053 26.7218 37.6666 L 26.7222 37.6682 C 26.8235 38.0229 26.8746 38.4187 26.8746 38.8564 Z M 22.6373 40.0275 L 22.6381 40.0297 C 22.7289 40.2946 22.8509 40.5167 23.0053 40.6942 C 23.1599 40.8721 23.3461 41.0041 23.563 41.0893 L 23.565 41.0901 C 23.7797 41.1667 24.0126 41.2047 24.263 41.2047 C 24.507 41.2047 24.7334 41.1627 24.9413 41.078 C 25.1589 40.9925 25.3452 40.8564 25.4996 40.6711 L 25.5005 40.67 C 25.6549 40.477 25.7728 40.2323 25.8558 39.9383 C 25.9468 39.6422 25.9914 39.2848 25.9914 38.8674 C 25.9914 38.4426 25.9431 38.0844 25.8442 37.7948 C 25.7537 37.5013 25.6319 37.2636 25.4765 37.0849 C 25.3225 36.9077 25.144 36.7791 24.941 36.7009 C 24.7485 36.624 24.5482 36.5856 24.3405 36.5856 C 24.0818 36.5856 23.8408 36.6312 23.6181 36.7232 C 23.3948 36.808 23.1985 36.9392 23.0296 37.1157 C 22.8666 37.2864 22.7402 37.5058 22.6492 37.7713 C 22.5576 38.0309 22.5126 38.3304 22.5126 38.6682 L 22.5126 39.0556 C 22.5126 39.4294 22.5537 39.7537 22.6373 40.0275 Z M 30.3952 40.5514 L 32.0285 36.1009 L 32.9442 36.1009 L 30.4792 42.2743 C 30.3766 42.5309 30.2743 42.7536 30.1724 42.9428 C 30.0712 43.1379 29.9594 43.3036 29.8384 43.4389 C 29.7202 43.571 29.5782 43.6681 29.4111 43.7308 L 29.4079 43.732 C 29.2492 43.801 29.0487 43.8372 28.8038 43.8372 C 28.6294 43.8372 28.4743 43.8263 28.3384 43.8047 C 28.2188 43.7859 28.0872 43.7529 27.9431 43.7056 L 28.0994 43.0625 C 28.2893 43.1229 28.48 43.1531 28.6709 43.1531 C 28.9182 43.1531 29.118 43.0876 29.2599 42.9466 C 29.4051 42.8167 29.5384 42.5789 29.6642 42.246 L 29.8966 41.6372 L 29.9065 41.6114 L 29.8955 41.5861 L 27.5121 36.1009 L 28.4813 36.1009 L 30.2688 40.5533 L 30.3345 40.7167 L 30.3952 40.5514 Z" stroke-linecap="round" />
</g>
		<g transform="matrix(1 0 0 1 -14.31 15.77)" clip-path="url(#CLIPPATH_12)"  >
<clipPath id="CLIPPATH_12" >
	<rect transform="matrix(1 0 0 1 14 -15.51)" id="clip0_278_36536" x="-70.5" y="-22.35365" rx="0" ry="0" width="141" height="44.7073" />
</clipPath>
<path style="stroke: none; stroke-width: 1; stroke-dasharray: none; stroke-linecap: butt; stroke-dashoffset: 0; stroke-linejoin: miter; stroke-miterlimit: 4; fill: rgb(245,240,240); fill-rule: nonzero; opacity: 1;" vector-effect="non-scaling-stroke"  transform=" translate(-56.5, -37.87)" d="M 51.7205 35.8825 L 53.3205 35.8825 L 50.8662 42.1062 L 49.4226 42.1062 L 46.9798 35.8825 L 48.6495 35.8825 L 50.1739 40.3506 L 51.7205 35.8825 Z M 60.9091 39.0428 C 60.7413 38.8816 60.5197 38.7452 60.2503 38.6371 C 59.9846 38.5305 59.6517 38.4445 59.2621 38.3814 L 58.4474 38.2403 C 58.2431 38.21 58.0768 38.1734 57.9526 38.1314 C 57.8325 38.091 57.7353 38.0413 57.6638 37.9837 C 57.5955 37.9285 57.5508 37.8655 57.5274 37.7908 C 57.5024 37.7117 57.4896 37.6196 57.4896 37.5166 C 57.4896 37.4322 57.5072 37.3503 57.542 37.2728 C 57.5756 37.1976 57.6386 37.1276 57.7288 37.0641 C 57.8225 36.9982 57.9464 36.944 58.0972 36.9031 C 58.2495 36.8616 58.4484 36.8408 58.6881 36.8408 C 59.111 36.8408 59.4156 36.9114 59.5926 37.0504 C 59.7704 37.1904 59.9053 37.4088 59.9936 37.6994 L 60.009 37.7506 L 61.3234 37.5702 L 61.3109 37.5051 C 61.2635 37.2584 61.1856 37.0223 61.079 36.8033 C 60.9709 36.5808 60.8125 36.3861 60.6084 36.2245 C 60.4057 36.0641 60.1427 35.9341 59.8272 35.8385 C 59.513 35.7433 59.1199 35.6951 58.6591 35.6951 C 58.2912 35.6951 57.9474 35.7395 57.6374 35.8265 C 57.3257 35.9143 57.0533 36.0416 56.8275 36.2055 C 56.6 36.3704 56.4202 36.5727 56.2925 36.8063 C 56.1639 37.0416 56.0989 37.3123 56.0989 37.6109 C 56.0989 37.9095 56.1453 38.1649 56.2373 38.3749 C 56.3296 38.5866 56.4702 38.7702 56.6546 38.9205 C 56.8372 39.0694 57.0677 39.1913 57.3399 39.283 C 57.6085 39.3736 57.9217 39.4475 58.2699 39.5023 L 59.0693 39.6432 C 59.4235 39.7029 59.6586 39.7987 59.7678 39.9272 C 59.8785 40.0574 59.9323 40.213 59.9323 40.4021 C 59.9323 40.6329 59.8478 40.8061 59.6737 40.9315 C 59.4957 41.0599 59.1853 41.1251 58.7514 41.1251 C 58.3609 41.1251 58.0365 41.0565 57.7875 40.9214 C 57.5473 40.7912 57.3958 40.5383 57.3374 40.1694 L 57.329 40.1163 L 55.9435 40.1163 L 55.9475 40.183 C 55.9713 40.5826 56.0662 40.922 56.2297 41.1912 C 56.3927 41.4603 56.6044 41.6802 56.8591 41.8447 C 57.1121 42.0081 57.4065 42.1255 57.7342 42.1933 C 58.0589 42.2602 58.4091 42.2941 58.7749 42.2941 C 59.6377 42.2941 60.294 42.1158 60.7253 41.7643 C 61.1606 41.4093 61.3815 40.9431 61.3815 40.3785 C 61.3815 40.0917 61.3453 39.8363 61.2739 39.6197 C 61.2012 39.4001 61.0786 39.2058 60.9091 39.0428 Z M 68.8207 38.983 C 68.8207 38.3346 68.6935 37.8178 68.4422 37.4471 C 68.1961 37.0839 67.8009 36.8998 67.2679 36.8998 C 66.7348 36.8998 66.3525 37.0808 66.0995 37.453 C 65.8447 37.8276 65.7154 38.3422 65.7154 38.983 C 65.7154 39.6238 65.843 40.1529 66.0942 40.5312 C 66.3434 40.9069 66.7275 41.0896 67.2682 41.0896 C 67.8088 41.0896 68.1928 40.9067 68.4422 40.5312 C 68.6935 40.1524 68.8207 39.6315 68.8207 38.983 Z M 69.5096 36.5772 C 69.77 36.8599 69.9718 37.2087 70.1098 37.614 C 70.247 38.0176 70.3164 38.4743 70.3164 38.9712 C 70.3164 39.4681 70.2449 39.9508 70.1036 40.3581 C 69.962 40.767 69.7565 41.1197 69.4922 41.4064 C 69.2272 41.6936 68.903 41.916 68.5286 42.067 C 68.1547 42.2177 67.7268 42.2944 67.2567 42.2944 C 66.3059 42.2944 65.5536 41.9996 65.0212 41.418 C 64.4896 40.8381 64.2206 40.0229 64.2206 38.9949 C 64.2206 38.4898 64.292 38.0289 64.4332 37.6253 C 64.5748 37.2201 64.783 36.8694 65.0507 36.5826 C 65.3188 36.296 65.6448 36.0739 66.0196 35.9224 C 66.3933 35.7716 66.8175 35.6951 67.2802 35.6951 C 67.7428 35.6951 68.1782 35.7716 68.5521 35.9224 C 68.9268 36.0739 69.2489 36.2942 69.5096 36.5772 Z M 74.3431 35.6951 C 73.9637 35.6951 73.5927 35.7839 73.2408 35.9596 C 72.9355 36.1119 72.6557 36.3444 72.4071 36.6523 L 72.4071 35.8829 L 71.0047 35.8829 L 71.0047 42.1065 L 72.4537 42.1065 L 72.4537 38.4084 C 72.4537 38.1765 72.4927 37.9767 72.5695 37.8137 C 72.6473 37.6497 72.7615 37.4986 72.9089 37.3648 C 73.2212 37.0872 73.5825 36.9466 73.983 36.9466 C 74.3115 36.9466 74.5619 37.0385 74.7272 37.2195 C 74.8936 37.4024 74.9779 37.739 74.9779 38.2207 L 74.9779 42.1065 L 76.4269 42.1065 L 76.4269 38.0097 C 76.4269 36.4739 75.7258 35.6951 74.3431 35.6951 Z M 53.8266 42.1065 L 55.2756 42.1065 L 55.2756 35.8823 L 53.8266 35.8823 L 53.8266 42.1065 Z M 62.0862 42.1065 L 63.5352 42.1065 L 63.5352 35.8823 L 62.0862 35.8823 L 62.0862 42.1065 Z M 39.2291 35.1532 C 39.6983 35.1532 40.0788 34.7691 40.0788 34.2954 C 40.0788 33.8216 39.6983 33.4378 39.2291 33.4378 C 38.7598 33.4378 38.3792 33.822 38.3792 34.2957 C 38.3792 34.7693 38.7598 35.1532 39.2291 35.1532 Z M 47.0868 40.1159 C 47.0595 40.283 46.8776 41.2077 46.1907 41.2077 C 45.9087 41.2077 45.7034 40.9266 45.7763 40.6517 L 46.4049 38.2856 C 46.5119 37.8605 46.5225 37.4381 46.4376 37.0612 C 46.28 36.2762 45.6283 35.6949 44.8293 35.6949 C 44.0302 35.6949 43.2293 36.2069 42.7176 37.063 L 43.0314 35.8825 L 40.5862 35.8825 L 40.2727 37.0625 L 41.5039 37.0625 L 40.8343 39.5827 C 40.6208 40.33 40.3102 41.0087 39.4269 41.02 C 38.9257 41.02 38.4541 40.5193 38.587 39.8391 C 38.587 39.8391 39.597 36.0468 39.6409 35.8825 L 36.8846 35.8825 L 36.571 37.0625 L 37.8022 37.0625 L 37.1005 39.7029 C 36.9937 40.1279 36.983 40.5504 37.068 40.9274 C 37.2256 41.7123 37.8772 42.2937 38.6763 42.2937 C 39.3293 42.2937 40.027 41.9242 40.5359 41.2888 L 40.3189 42.1062 L 41.6882 42.1062 L 42.6715 38.4059 C 42.885 37.6584 43.1956 36.9798 44.0789 36.9685 C 44.5801 36.9685 45.0517 37.4693 44.9188 38.1494 L 44.3548 40.2618 C 44.0824 41.2867 44.7983 42.2937 45.8517 42.2937 C 47.4722 42.2937 47.8943 40.3617 47.9414 40.1156 L 47.0868 40.1159 Z M 54.5504 35.1532 C 55.0197 35.1532 55.4003 34.7691 55.4003 34.2954 C 55.4003 33.8216 55.0199 33.4378 54.5506 33.4378 C 54.0813 33.4378 53.7008 33.822 53.7008 34.2957 C 53.7008 34.7693 54.0811 35.1532 54.5504 35.1532 Z M 62.8101 35.1532 C 63.2794 35.1532 63.6599 34.7691 63.6599 34.2954 C 63.6599 33.8216 63.2794 33.4375 62.8101 33.4375 C 62.3408 33.4375 61.9602 33.8216 61.9602 34.2954 C 61.9602 34.7691 62.3408 35.1532 62.8101 35.1532 Z" stroke-linecap="round" />
</g>
		<g transform="matrix(1 0 0 1 -63.3 -12.22)" clip-path="url(#CLIPPATH_13)"  >
<clipPath id="CLIPPATH_13" >
	<rect transform="matrix(1 0 0 1 62.99 12.48)" id="clip0_278_36536" x="-70.5" y="-22.35365" rx="0" ry="0" width="141" height="44.7073" />
</clipPath>
<path style="stroke: none; stroke-width: 1; stroke-dasharray: none; stroke-linecap: butt; stroke-dashoffset: 0; stroke-linejoin: miter; stroke-miterlimit: 4; fill: rgb(245,240,240); fill-rule: evenodd; opacity: 1;" vector-effect="non-scaling-stroke"  transform=" translate(-7.51, -9.87)" d="M 2.46688 18.5878 C 1.81996 19.3179 0.613525 18.8604 0.613525 17.8849 L 0.613525 1.86382 C 0.613525 0.946727 1.69922 0.462407 2.38164 1.07508 L 14.0447 11.5462 C 14.768 12.1956 14.3087 13.3949 13.3366 13.3949 L 7.30273 13.3949 C 7.15335 13.3949 7.01112 13.4588 6.91207 13.5707 L 2.46688 18.5878 Z" stroke-linecap="round" />
</g>
</g>
</g>
</svg>