<svg width="60" height="60" viewBox="0 0 60 60" fill="none" xmlns="http://www.w3.org/2000/svg">
<rect width="60" height="60" rx="4" fill="#3245EE"/>
<path fill-rule="evenodd" clip-rule="evenodd" d="M21.9668 21.5121C21.7327 21.5121 21.543 21.6995 21.543 21.9308V40.0687C21.543 40.1416 21.5622 40.2132 21.5988 40.2765C21.7149 40.4772 21.9738 40.547 22.1771 40.4323L38.243 31.3633C38.3087 31.3262 38.3631 31.2724 38.4007 31.2075C38.5168 31.0067 38.4462 30.751 38.243 30.6362L22.1771 21.5672C22.113 21.5311 22.0406 21.5121 21.9668 21.5121ZM19 21.9308C19 20.3121 20.3283 19 21.9668 19C22.4831 19 22.9905 19.1331 23.4387 19.3861L39.5046 28.4551C40.9273 29.2582 41.4215 31.0485 40.6086 32.4538C40.3458 32.9082 39.9646 33.2847 39.5046 33.5444L23.4387 42.6133C22.0161 43.4164 20.2038 42.9282 19.3909 41.5228C19.1347 41.08 19 40.5788 19 40.0687V21.9308Z" fill="white"/>
</svg>
