<svg width="60" height="60" viewBox="0 0 60 60" fill="none" xmlns="http://www.w3.org/2000/svg">
<rect width="60" height="60" rx="4" fill="#3245EE"/>
<path fill-rule="evenodd" clip-rule="evenodd" d="M23.6759 25.5741C23.6759 22.3575 26.2835 19.75 29.5 19.75C32.7165 19.75 35.3241 22.3575 35.3241 25.5741C35.3241 28.7906 32.7165 31.3982 29.5 31.3982C26.2835 31.3982 23.6759 28.7906 23.6759 25.5741ZM29.5 21.8056C27.4187 21.8056 25.7315 23.4928 25.7315 25.5741C25.7315 27.6554 27.4187 29.3426 29.5 29.3426C31.5813 29.3426 33.2685 27.6554 33.2685 25.5741C33.2685 23.4928 31.5813 21.8056 29.5 21.8056ZM29.5 34.8241C25.5266 34.8241 22.3056 38.0451 22.3056 42.0185C22.3056 42.5861 21.8454 43.0463 21.2778 43.0463C20.7102 43.0463 20.25 42.5861 20.25 42.0185C20.25 36.9099 24.3914 32.7685 29.5 32.7685C34.6086 32.7685 38.75 36.9099 38.75 42.0185C38.75 42.5861 38.2898 43.0463 37.7222 43.0463C37.1546 43.0463 36.6944 42.5861 36.6944 42.0185C36.6944 38.0451 33.4734 34.8241 29.5 34.8241Z" fill="white"/>
</svg>
