<svg height="36" viewBox="0 0 36 36" width="36" xmlns="http://www.w3.org/2000/svg"><g fill="none" fill-rule="evenodd"><rect fill="#353cee" height="36" rx="3" width="36"/><g fill="#fff" transform="translate(9 9)"><path d="m12 0c.0259981 3.31822828 2.6806654 6 5.9516113 6 .0161447 0 .0322743-.00006533.0483887-.00019575v-5.99980425z"/><path d="m12 12c.0259981 3.3182283 2.6806654 6 5.9516113 6 .0161447 0 .0322743-.0000653.0483887-.0001958v-5.9998042z" transform="matrix(1 0 0 -1 0 30)"/><path d="m8.99999999.00013749c-.01665593-.00009162-.03332264-.00013749-.05-.00013749-4.9429485 0-8.94999999 4.02943725-8.94999999 9 0 4.9705627 4.00705149 9 8.94999999 9 .01667737 0 .03334407-.0000459.05000001-.0001375z"/></g></g></svg>