<svg height="250" viewBox="0 0 250 250" width="250" xmlns="http://www.w3.org/2000/svg"><g fill="none"><path d="m0 0h250v250h-250z" fill="#f06"/><g fill="#fff" transform="translate(48 51)"><path d="m37.07 29.45c7.9079638-.1155776 14.2360946-6.599521 14.1593229-14.5079568-.0767718-7.90843577-6.5295849-14.26830717-14.4383022-14.23051219-7.9087173.03813314-14.3001761 6.45966065-14.3010207 14.36846899.0130906 3.8436309 1.5601506 7.5229752 4.297667 10.2210623 2.7375163 2.6980871 6.4389167 4.191608 10.282333 4.1489377z"/><path d="m6.84 106.38c-.82782834 3.537872-1.26047633 7.156687-1.29 10.79 0 12.65 6.86 21.05 21.44 21.05 12.09 0 21.9-7.18 28.95-18.78l-4.31 17.3h24l13.73-55c3.43-13.94 10.07-21.17 20.15-21.17 7.93 0 12.86 4.93 12.86 13.08.039125 2.6128426-.321716 5.2162931-1.07 7.72l-7.07 25.29c-1.011555 3.482898-1.516731 7.093219-1.5 10.72 0 12 7.07 20.8 21.86 20.8 12.65 0 22.73-8.14 28.3-27.65l-9.43-3.65c-4.72 13.08-8.79 15.44-12 15.44s-4.94-2.14-4.94-6.43c.092648-2.251159.451821-4.4834 1.07-6.65l6.87-24.65c1.542334-5.0675639 2.337367-10.3329739 2.36-15.63 0-18.44-11.15-28.06-24.66-28.06-12.65 0-25.51 11.41-31.94 23.42l4.71-21.56h-36.65l-5.15 19h17.16l-10.56 42.24c-8.3 18.44-23.54 18.74-25.45 18.31-3.14-.71-5.14-1.9-5.14-6 .0915684-3.319523.5954317-6.614789 1.5-9.81l16.08-63.79h-40.72l-5.14 19h16.93z"/></g></g></svg>