<svg height="36" viewBox="0 0 36 36" width="36" xmlns="http://www.w3.org/2000/svg"><g fill="none" fill-rule="evenodd"><rect fill="#353cee" height="36" rx="3" width="36"/><path d="m9.03389436 5.28025546c-.69574269.81519579-1.39148538 1.65850178-2.0337094 2.52991797-1.28444805 1.77094258-2.48861809 3.62621577-3.42519479 5.56581957-.45490868.9557467-.8562987 1.9677139-1.0168547 2.8672403-.08027801.4497632-.05351867.8714162 0 1.0119672.02675933.0562204.02675933.0843306.10703733.140551 0 0 0 0 .02675934.0281102.02675933 0 .05351867.0281102.13379667 0 .26759334 0 .72250202-.1686612 1.15065137-.3935428s.88305803-.4778734 1.33796672-.7589754c.90981736-.562204 1.79287539-1.2087386 2.70269276-1.8552732.90981736-.6465345 1.84639406-1.2649589 2.80973014-1.8833833.963336-.5903142 1.9534314-1.1806284 3.0505641-1.6022814.5351867-.2248816 1.123892-.3935428 1.7125974-.5059836.6154646-.1124408 1.2576887-.1686612 1.8999127-.0562204.321112.0562204.642224.140551.963336.281102s.6689834.3373224.9633361.702755c.2943526.3654326.4549086.8714162.4281493 1.2930692 0 .421653-.080278.7870856-.1873153 1.0962978-.2140747.6465345-.5084274 1.1806283-.8295394 1.6866119-.2943527.5059836-.6154647.983857-.9098174 1.4617304-.2943526.4778734-.5887053.9276366-.7760207 1.3492896-.0267593.0562204-.0267593.1124408-.0535186.140551 0 .0281102-.0267594.0843306-.0267594.1124408v.0562204-.0281102s0-.0281102-.0267593-.0281102c.0267593.0281102.0267593.0281102.080278.0562204s.1337967.0562204.2140747.0843306c.3478713.0843306.8562987.0281102 1.364726-.0562204.4816681-.1124408.9900954-.281102 1.4985228-.4778734.9900953-.3935428 1.9801907-.8714162 2.9167674-1.40551.240834-.140551.5351867-.0281102.6689834.1967714.1337966.2529918.0535186.562204-.1873154.702755-.963336.5903142-1.9534314 1.124408-2.9970454 1.5741712-.5084274.2248816-1.0703734.421653-1.6323194.5903142-.561946.140551-1.1774107.281102-1.8999128.140551-.080278-.0281102-.1873153-.0562204-.2675933-.0843306s-.1873153-.0843306-.2675933-.140551-.1873154-.1124408-.2675934-.1967714c-.0267593-.0281102-.1070373-.0843306-.1337967-.1686612-.0535186-.0562204-.1070373-.140551-.1337966-.1967714-.0267594-.0843306-.0535187-.140551-.080278-.2248816-.0267594-.0843306-.0267594-.140551-.0267594-.2248816-.0267593-.140551 0-.2529918 0-.3654326s.0267594-.1967714.0535187-.3092122c.0267593-.0843306.0535187-.1686612.080278-.2529918.240834-.6465346.5351867-1.124408.8295394-1.6303916.2943526-.5059836.5887053-.983857.8562987-1.4336202.2675933-.4778734.5084273-.9557467.642224-1.4055099.0535187-.2248816.1070373-.421653.080278-.5903142 0-.140551-.0535187-.2248816-.1070373-.3092122-.0535187-.0843306-.2140747-.1686612-.3746307-.2248816-.1873154-.0843306-.40139-.140551-.6154647-.140551-.8562987-.1124408-1.8463941.1686612-2.7562114.5903142-.9365767.421653-1.8463941.983857-2.7294521 1.5741711-.8830581.6184244-1.7661161 1.264959-2.64917413 1.9396038s-1.76611607 1.3492896-2.70269277 1.9958242c-.48166801.3373224-.96333603.6465346-1.49852271.9276366-.26759335.140551-.56194602.281102-.8562987.3935428-.32111201.1124408-.66898336.2248816-1.07037337.2529918-.21407468.0281102-.45490869 0-.69574269-.0281102-.24083401-.0562204-.50842736-.140551-.74926136-.281102-.40139002-.2248816-.80278003-.6746448-.99009537-1.124408-.21407468-.4497632-.26759335-.8714162-.29435268-1.264959-.02675934-.3935428 0-.7589754.05351867-1.0962978.080278-.6746448.26759334-1.2930692.45490868-1.8833833.18731534-.5903142.42814935-1.1525182.66898336-1.7147222.96333603-2.1925956 2.16750608-4.18841978 3.47871346-6.12802355.66898335-.95574679 1.33796671-1.91149358 2.08722807-2.81101997.74926136-.89952638 1.52528205-1.79905277 2.51537742-2.64235876.61546472-.5340938 1.52528202-.421653 2.03370942.22488159.5084273.6465346.40139 1.60228138-.2140747 2.13637518-.1606539.13044603-1.65907871 1.40550998-2.38158074 2.22070577z" fill="#fff" fill-rule="nonzero" transform="translate(6.492857 7.3125)"/></g></svg>