<svg width="60" height="60" viewBox="0 0 60 60" fill="none" xmlns="http://www.w3.org/2000/svg">
<rect width="60" height="60" rx="4" fill="#3245EE"/>
<path fill-rule="evenodd" clip-rule="evenodd" d="M34.6895 23.9931C34.3027 23.9931 33.797 23.7863 33.916 23.4264C33.9585 23.2947 34.4926 22.8598 34.4926 21.7264C34.4926 19.5348 32.6835 17.7598 30.4536 17.7598C28.2224 17.7598 26.4133 19.5348 26.4133 21.7264C26.4133 22.8598 26.9474 23.2947 26.9913 23.4264C27.1103 23.7863 26.6031 23.9931 26.2164 23.9931H23.0133C22.3758 23.9931 21.9196 24.4989 21.9196 25.1264V28.8098C21.9196 29.188 21.9211 29.4926 21.5541 29.3764C21.421 29.3339 20.8841 28.8098 19.7295 28.8098C17.4996 28.8098 15.7161 30.5849 15.7161 32.7764C15.7161 34.9666 17.4996 36.7431 19.7295 36.7431C20.8841 36.7431 21.421 36.2189 21.5541 36.1764C21.9225 36.0574 21.9196 36.3634 21.9196 36.7431V40.7098C21.9196 41.3345 22.3772 41.8431 23.0133 41.8431H38.3402C39.0698 41.8431 39.7994 41.3345 39.7994 40.7098V36.6949C39.7994 36.2374 39.3404 36.0475 38.9678 36.3238C38.6505 36.5604 38.234 36.7417 37.4916 36.7417C35.2604 36.7417 33.4513 34.9666 33.4513 32.775C33.4513 30.5848 35.2604 28.8084 37.4916 28.8084C38.2467 28.8084 38.6618 28.9868 38.9735 29.2206C39.3446 29.4997 39.7994 29.3141 39.7994 28.8565V25.4792C39.7994 24.853 39.0698 23.9917 38.3402 23.9917H34.6909L34.6895 23.9931Z" stroke="white" stroke-width="2"/>
</svg>
