<svg width="60" height="60" viewBox="0 0 60 60" fill="none" xmlns="http://www.w3.org/2000/svg">
<rect width="60" height="60" rx="4" fill="#343437"/>
<path fill-rule="evenodd" clip-rule="evenodd" d="M31.8576 21.1334C32.239 21.2908 32.4727 21.6791 32.4332 22.0898L31.8108 28.5626H38.75C39.1124 28.5626 39.4424 28.7715 39.5974 29.099C39.7524 29.4266 39.7048 29.8143 39.4749 30.0945L29.2249 42.5945C28.9633 42.9136 28.5238 43.0241 28.1424 42.8667C27.761 42.7093 27.5273 42.321 27.5668 41.9103L28.1892 35.4376H21.25C20.8876 35.4376 20.5576 35.2287 20.4026 34.9011C20.2476 34.5735 20.2953 34.1859 20.5251 33.9056L30.7751 21.4056C31.0367 21.0865 31.4762 20.976 31.8576 21.1334ZM23.2311 33.5626H29.25C29.5189 33.5626 29.7749 33.678 29.9528 33.8796C30.1308 34.0812 30.2136 34.3495 30.1803 34.6163L30.0569 35.6031L29.728 39.024L36.7689 30.4376H30.75C30.4811 30.4376 30.2251 30.3221 30.0472 30.1205C29.8692 29.9189 29.7864 29.6506 29.8197 29.3838L29.9431 28.397L30.272 24.9761L23.2311 33.5626Z" fill="white"/>
</svg>
