<svg width="60" height="60" viewBox="0 0 60 60" fill="none" xmlns="http://www.w3.org/2000/svg">
<rect width="60" height="60" rx="4" fill="#3245EE"/>
<path fill-rule="evenodd" clip-rule="evenodd" d="M24.6087 30.01C24.4226 30.01 24.2717 30.1609 24.2717 30.347V38.4339C24.2717 38.62 24.4226 38.7709 24.6087 38.7709H35.3913C35.5774 38.7709 35.7283 38.62 35.7283 38.4339V30.347C35.7283 30.1609 35.5774 30.01 35.3913 30.01H24.6087ZM22.25 30.347C22.25 29.0443 23.306 27.9883 24.6087 27.9883H35.3913C36.694 27.9883 37.75 29.0443 37.75 30.347V38.4339C37.75 39.7366 36.694 40.7926 35.3913 40.7926H24.6087C23.306 40.7926 22.25 39.7366 22.25 38.4339V30.347Z" fill="white"/>
<path fill-rule="evenodd" clip-rule="evenodd" d="M29.9997 23.2717C28.2096 23.2717 26.9671 24.537 26.9671 25.8551V29C26.9671 29.5583 26.5145 30.0109 25.9562 30.0109C25.3979 30.0109 24.9453 29.5583 24.9453 29V25.8551C24.9453 23.2031 27.3234 21.25 29.9997 21.25C32.6759 21.25 35.054 23.2031 35.054 25.8551V29C35.054 29.5583 34.6014 30.0109 34.0431 30.0109C33.4849 30.0109 33.0323 29.5583 33.0323 29V25.8551C33.0323 24.537 31.7897 23.2717 29.9997 23.2717Z" fill="white"/>
</svg>
