<svg height="24" viewBox="0 0 24 24" width="24" xmlns="http://www.w3.org/2000/svg"><path d="m12.5080653 2.15094256c.1456805.08595025.2671789.20744864.3531291.35312917l9.990565 16.93340887c.2806399.4756677.1225385 1.0887761-.3531291 1.3694159-.1539397.090823-.3294083.1387275-.5081434.1387275h-19.98112998c-.55228475 0-1-.4477153-1-1 0-.1787352.04790443-.3542037.13872749-.5081434l9.99056499-16.93340887c.2806398-.47566768.8937482-.63376899 1.3694159-.35312917zm-.3339805 14.11200904h-.3483258c-.5522847 0-1 .4477153-1 1v.3413362c0 .5522847.4477153 1 1 1h.3483258c.5522848 0 1-.4477153 1-1v-.3413362c0-.5522847-.4477152-1-1-1zm-.1741629-9.36534472c-.6484722 0-1.1741629.52412596-1.1741629 1.17066809v4.86579863l.0078995.1365247c.0678256.5822185.5641106 1.0341434 1.1662634 1.0341434.6484723 0 1.1741629-.5241259 1.1741629-1.1706681v-4.86579863l-.0078994-.13652463c-.0678257-.58221852-.5641107-1.03414346-1.1662635-1.03414346z" fill="#fc0" fill-rule="evenodd"/></svg>